<svg width="22" height="22" viewBox="0 0 22 22" fill="none" xmlns="http://www.w3.org/2000/svg">
<path fill-rule="evenodd" clip-rule="evenodd" d="M8.93756 1.91481L17.875 1.91481C18.9049 1.91481 19.6625 2.67245 19.6625 3.7023V12.6398C19.6625 13.6696 18.9049 14.4272 17.875 14.4272L14.3 14.4272L14.3 18.0022C14.3 19.0321 13.5424 19.7897 12.5125 19.7897H3.57509C2.54524 19.7897 1.7876 19.0321 1.7876 18.0022L1.7876 9.06477C1.7876 8.03492 2.54524 7.27728 3.57509 7.27728H7.15007V3.7023C7.15007 2.67245 7.90771 1.91481 8.93756 1.91481ZM7.15007 9.06477H3.57509L3.57509 18.0022H12.5125L12.5125 14.4272H8.93756C7.90771 14.4272 7.15007 13.6696 7.15007 12.6398L7.15007 9.06477ZM8.93756 3.7023V12.6398L17.875 12.6398V3.7023L8.93756 3.7023Z" fill="black"/>
</svg>
